<svg width="17" height="21" viewBox="0 0 17 21" fill="none" xmlns="http://www.w3.org/2000/svg">
<path fill-rule="evenodd" clip-rule="evenodd" d="M9.54165 1.12501C9.54165 0.549714 9.07528 0.0833435 8.49999 0.0833435C7.92469 0.0833435 7.45832 0.549714 7.45832 1.12501V1.90626H6.87768C4.55989 1.90626 2.64156 3.70836 2.49688 6.02162L2.26667 9.7023C2.1789 11.1056 1.70776 12.458 0.904574 13.6121C0.178864 14.6548 0.824927 16.095 2.08631 16.2464L5.6354 16.6723V17.7917C5.6354 19.3737 6.91792 20.6563 8.49999 20.6563C10.0821 20.6563 11.3646 19.3737 11.3646 17.7917V16.6723L14.9137 16.2464C16.175 16.095 16.8211 14.6548 16.0954 13.6121C15.2922 12.458 14.8211 11.1056 14.7333 9.7023L14.5031 6.02162C14.3584 3.70836 12.4401 1.90626 10.1223 1.90626H9.54165V1.12501ZM6.87768 3.46876C5.38497 3.46876 4.14951 4.62936 4.05633 6.11916L3.82612 9.79984C3.7205 11.4885 3.15357 13.1159 2.18706 14.5046C2.13461 14.58 2.1813 14.6841 2.27248 14.695L6.16587 15.1622C7.71638 15.3483 9.28358 15.3483 10.8341 15.1622L14.7275 14.695C14.8187 14.6841 14.8654 14.58 14.8129 14.5046C13.8464 13.1159 13.2795 11.4885 13.1738 9.79984L12.9436 6.11915C12.8505 4.62936 11.615 3.46876 10.1223 3.46876H6.87768ZM8.49999 19.0938C7.78087 19.0938 7.1979 18.5108 7.1979 17.7917V17.0104H9.80207V17.7917C9.80207 18.5108 9.21911 19.0938 8.49999 19.0938Z" fill="white"/>
</svg>
