<svg width="50" height="50" viewBox="0 0 50 50" fill="none" xmlns="http://www.w3.org/2000/svg">
<circle cx="25" cy="25" r="25" fill="#E9B850" fill-opacity="0.25"/>
<circle cx="25" cy="26" r="15" fill="#E9B850"/>
<path d="M28.3882 23.4957C28.6323 23.2516 28.6323 22.8559 28.3882 22.6118C28.1441 22.3677 27.7484 22.3677 27.5043 22.6118L25 25.1161L22.4957 22.6118C22.2516 22.3677 21.8559 22.3677 21.6118 22.6118C21.3677 22.8559 21.3677 23.2516 21.6118 23.4957L24.1161 26L21.6118 28.5043C21.3677 28.7484 21.3677 29.1441 21.6118 29.3882C21.8558 29.6323 22.2516 29.6323 22.4957 29.3882L25 26.8839L27.5043 29.3882C27.7484 29.6323 28.1441 29.6323 28.3882 29.3882C28.6323 29.1441 28.6323 28.7484 28.3882 28.5043L25.8839 26L28.3882 23.4957Z" fill="white"/>
</svg>
