<svg width="23" height="23" viewBox="0 0 23 23" fill="none" xmlns="http://www.w3.org/2000/svg">
<path d="M18.5833 13.0833C18.296 13.0833 18.0205 13.1975 17.8173 13.4006C17.6141 13.6038 17.5 13.8794 17.5 14.1667V14.5783L15.8967 12.975C15.3305 12.4134 14.5654 12.0982 13.7679 12.0982C12.9704 12.0982 12.2053 12.4134 11.6392 12.975L10.8808 13.7333L8.19416 11.0467C7.62012 10.5002 6.85794 10.1955 6.06541 10.1955C5.27288 10.1955 4.51069 10.5002 3.93666 11.0467L2.33332 12.65V6.58334C2.33332 6.29603 2.44746 6.02048 2.65062 5.81731C2.85379 5.61415 3.12934 5.50001 3.41666 5.50001H11C11.2873 5.50001 11.5629 5.38587 11.766 5.18271C11.9692 4.97954 12.0833 4.70399 12.0833 4.41668C12.0833 4.12936 11.9692 3.85381 11.766 3.65064C11.5629 3.44748 11.2873 3.33334 11 3.33334H3.41666C2.5547 3.33334 1.72805 3.67575 1.11856 4.28525C0.509066 4.89474 0.166656 5.72139 0.166656 6.58334V19.5833C0.166656 20.4453 0.509066 21.2719 1.11856 21.8814C1.72805 22.4909 2.5547 22.8333 3.41666 22.8333H16.4167C17.2786 22.8333 18.1053 22.4909 18.7148 21.8814C19.3242 21.2719 19.6667 20.4453 19.6667 19.5833V14.1667C19.6667 13.8794 19.5525 13.6038 19.3494 13.4006C19.1462 13.1975 18.8706 13.0833 18.5833 13.0833ZM3.41666 20.6667C3.12934 20.6667 2.85379 20.5525 2.65062 20.3494C2.44746 20.1462 2.33332 19.8707 2.33332 19.5833V15.7158L5.47499 12.5742C5.63414 12.4225 5.84556 12.3379 6.06541 12.3379C6.28525 12.3379 6.49667 12.4225 6.65582 12.5742L10.09 16.0083L14.7483 20.6667H3.41666ZM17.5 19.5833C17.4984 19.7907 17.43 19.9921 17.305 20.1575L12.4192 15.25L13.1775 14.4917C13.2552 14.4124 13.3479 14.3494 13.4502 14.3064C13.5525 14.2634 13.6623 14.2413 13.7733 14.2413C13.8843 14.2413 13.9942 14.2634 14.0965 14.3064C14.1988 14.3494 14.2915 14.4124 14.3692 14.4917L17.5 17.6442V19.5833ZM22.6025 3.64751L19.3525 0.39751C19.2495 0.298882 19.128 0.22157 18.995 0.17001C18.7312 0.0616569 18.4354 0.0616569 18.1717 0.17001C18.0387 0.22157 17.9172 0.298882 17.8142 0.39751L14.5642 3.64751C14.4631 3.74852 14.383 3.86843 14.3284 4.00041C14.2737 4.13238 14.2456 4.27383 14.2456 4.41668C14.2456 4.70517 14.3602 4.98185 14.5642 5.18584C14.7682 5.38984 15.0448 5.50444 15.3333 5.50444C15.6218 5.50444 15.8985 5.38984 16.1025 5.18584L17.5 3.77751V9.83334C17.5 10.1207 17.6141 10.3962 17.8173 10.5994C18.0205 10.8025 18.296 10.9167 18.5833 10.9167C18.8706 10.9167 19.1462 10.8025 19.3494 10.5994C19.5525 10.3962 19.6667 10.1207 19.6667 9.83334V3.77751L21.0642 5.18584C21.1649 5.28738 21.2847 5.36798 21.4167 5.42298C21.5487 5.47797 21.6903 5.50629 21.8333 5.50629C21.9763 5.50629 22.1179 5.47797 22.2499 5.42298C22.382 5.36798 22.5018 5.28738 22.6025 5.18584C22.704 5.08513 22.7846 4.96532 22.8396 4.8333C22.8946 4.70129 22.9229 4.55969 22.9229 4.41668C22.9229 4.27366 22.8946 4.13207 22.8396 4.00005C22.7846 3.86804 22.704 3.74822 22.6025 3.64751Z" fill="white"/>
</svg>
