<svg width="25" height="25" viewBox="0 0 25 25" fill="none" xmlns="http://www.w3.org/2000/svg">
<path d="M10.9375 16.6667C10.9375 15.8037 11.637 15.1042 12.5 15.1042C13.3629 15.1042 14.0625 15.8037 14.0625 16.6667C14.0625 17.5296 13.3629 18.2292 12.5 18.2292C11.637 18.2292 10.9375 17.5296 10.9375 16.6667Z" fill="#0558B4"/>
<path fill-rule="evenodd" clip-rule="evenodd" d="M7.93919 11.0387L7.61061 8.08143C7.56848 7.70229 7.56848 7.31964 7.61061 6.9405L7.63432 6.72706C7.88587 4.46312 9.66567 2.67181 11.9279 2.40566C12.308 2.36095 12.6919 2.36095 13.072 2.40566C15.3342 2.67181 17.114 4.46312 17.3656 6.72707L17.3893 6.9405C17.4314 7.31964 17.4314 7.70229 17.3893 8.08143L17.0607 11.0387L17.7759 11.0958C18.9038 11.1858 19.8247 12.0336 20.0075 13.1502C20.3888 15.479 20.3888 17.8543 20.0075 20.1831C19.8247 21.2997 18.9038 22.1475 17.7759 22.2375L16.2174 22.362C13.7431 22.5595 11.2569 22.5595 8.78256 22.362L7.22409 22.2375C6.09625 22.1475 5.1753 21.2997 4.99248 20.1831C4.61115 17.8543 4.61115 15.479 4.99248 13.1502C5.1753 12.0336 6.09625 11.1858 7.22409 11.0958L7.93919 11.0387ZM12.1105 3.95745C12.3692 3.92701 12.6307 3.92701 12.8894 3.95745C14.4296 4.13866 15.6414 5.35824 15.8126 6.89961L15.8363 7.11305C15.8657 7.37751 15.8657 7.64442 15.8363 7.90888L15.5018 10.9198C13.5026 10.791 11.4973 10.791 9.49809 10.9198L9.16355 7.90888C9.13417 7.64442 9.13417 7.37751 9.16355 7.11305L9.18727 6.89961C9.35853 5.35824 10.5703 4.13866 12.1105 3.95745ZM16.0931 12.5289C13.7015 12.338 11.2985 12.338 8.9069 12.5289L7.34843 12.6533C6.93705 12.6862 6.60113 12.9954 6.53444 13.4027C6.1805 15.5643 6.1805 17.7691 6.53444 19.9307C6.60113 20.3379 6.93705 20.6472 7.34843 20.68L8.9069 20.8044C11.2985 20.9953 13.7015 20.9953 16.0931 20.8044L17.6516 20.68C18.063 20.6472 18.3989 20.3379 18.4656 19.9307C18.8195 17.7691 18.8195 15.5643 18.4656 13.4027C18.3989 12.9954 18.063 12.6862 17.6516 12.6533L16.0931 12.5289Z" fill="#0558B4"/>
</svg>
